<svg xmlns="http://www.w3.org/2000/svg" width="110" height="146" fill="none"><g filter="url(#a)"><path fill="url(#b)" fill-rule="evenodd" d="M0 11.401C0 5.105 5.092.001 11.388.001h87.23c6.296 0 11.382 5.104 11.382 11.4v123.2c0 6.296-5.104 11.4-11.4 11.4H11.4c-6.296 0-11.4-5.104-11.4-11.4v-123.2Z" clip-rule="evenodd"/><path stroke="#fff" stroke-opacity=".2" stroke-width=".95" d="M11.388-.474C4.828-.474-.475 4.843-.475 11.401v123.2c0 6.558 5.317 11.875 11.875 11.875h87.2c6.558 0 11.875-5.317 11.875-11.875v-123.2c0-6.557-5.297-11.875-11.857-11.875H11.388Z"/></g><defs><linearGradient id="b" x1="0" x2="0" y1=".001" y2="146.001" gradientUnits="userSpaceOnUse"><stop stop-opacity=".01"/><stop offset=".62" stop-color="#04061A" stop-opacity=".01"/><stop offset=".767" stop-color="#060925" stop-opacity=".558"/><stop offset="1" stop-color="#15072F"/></linearGradient><filter id="a" width="157.5" height="193.5" x="-23.75" y="-23.749" color-interpolation-filters="sRGB" filterUnits="userSpaceOnUse"><feFlood flood-opacity="0" result="BackgroundImageFix"/><feColorMatrix in="SourceAlpha" result="hardAlpha" values="0 0 0 0 0 0 0 0 0 0 0 0 0 0 0 0 0 0 127 0"/><feOffset/><feGaussianBlur stdDeviation="11.4"/><feColorMatrix values="0 0 0 0 1 0 0 0 0 0.510777 0 0 0 0 0.892795 0 0 0 0.235299 0"/><feBlend in2="BackgroundImageFix" result="effect1_dropShadow_1_766"/><feBlend in="SourceGraphic" in2="effect1_dropShadow_1_766" result="shape"/></filter></defs></svg>